<?xml version="1.0" encoding="utf-8"?>
<!-- Generator: Adobe Illustrator 20.1.0, SVG Export Plug-In . SVG Version: 6.00 Build 0)  -->
<svg version="1.1" id="Layer_1" xmlns="http://www.w3.org/2000/svg" xmlns:xlink="http://www.w3.org/1999/xlink" x="0px" y="0px"
	 viewBox="0 0 500 500" style="enable-background:new 0 0 500 500;" xml:space="preserve">
<style type="text/css">
	.st0{display:none;fill:#FFFFFF;}
	.st1{display:none;fill:#606060;}
	.st2{fill:#606060;}
</style>
<path id="path14" class="st0" d="M259.5,250c0-5.2-4.2-9.5-9.5-9.5c-5.2,0-9.5,4.2-9.5,9.5s4.2,9.5,9.5,9.5
	C255.2,259.5,259.5,255.2,259.5,250"/>
<path class="st1" d="M219.8,237.8c-5-0.1-9.1,3.9-9.1,8.9c-0.1,5,3.9,9.1,8.9,9.1c5,0.1,9-4,9.1-8.9
	C228.8,241.9,224.8,237.8,219.8,237.8z M219.5,253.6c-3.6,0-6.6-3-6.6-6.7s3-6.6,6.7-6.6s6.6,2.9,6.6,6.7
	C226.2,250.7,223.2,253.6,219.5,253.6z"/>
<g>
	<path class="st2" d="M252.3,123.9c-69.8,0-128.4,56.3-128.4,126.1S180.2,378.4,250,378.4s128.4-56.3,128.4-126.1
		C378.4,180.2,322.1,123.9,252.3,123.9z M250,315.3c-36,0-63.1-29.3-63.1-65.3s29.3-63.1,65.3-63.1c36,0,63.1,29.3,63.1,65.3
		C313.1,286,286,315.3,250,315.3z"/>
	<path class="st2" d="M250,0H0v250c0,137.4,112.6,250,250,250s250-112.6,250-250S387.4,0,250,0z M425.7,250
		c-2.3,94.6-78.8,173.4-175.7,171.2c-96.8,0-173.4-78.8-171.2-175.7c0-96.8,78.8-173.4,175.7-171.2
		C351.4,74.3,427.9,153.2,425.7,250z"/>
</g>
<path class="st1" d="M219.7,243.5c-1.9,0-3.4,1.4-3.4,3.3s1.4,3.4,3.3,3.4s3.3-1.5,3.4-3.3C223,245,221.6,243.5,219.7,243.5z"/>
</svg>
